# MagicaVoxel @ Ephtracy

# group
o 

# material
mtllib snowball.mtl
usemtl palette

# normals
vn -1 0 0
vn 1 0 0
vn 0 0 1
vn 0 0 -1
vn 0 -1 0
vn 0 1 0

# texcoords
vt 0.958984 0.5
vt 0.982422 0.5
vt 0.986328 0.5
vt 0.994141 0.5

# verts
v -0.8 0 0.3
v -0.8 0 -0.4
v -0.8 0.6 0.3
v -0.8 0.6 -0.4
v -0.5 0.6 0.6
v -0.5 0.6 0.3
v -0.5 0.6 -0.4
v -0.5 0.6 -0.7
v -0.5 1.6 0.6
v -0.5 1.6 -0.7
v -0.3 1.6 -0.1
v -0.3 1.6 -0.2
v -0.3 1.7 -0.1
v -0.3 1.7 -0.2
v -0.2 1.6 0.1
v -0.2 1.6 -0.1
v -0.2 1.6 -0.2
v -0.2 1.6 -0.3
v -0.2 1.7 0.1
v -0.2 1.7 -0.1
v -0.2 1.7 -0.2
v -0.2 1.7 -0.3
v -0.1 1.6 0.2
v -0.1 1.6 0.1
v -0.1 1.6 -0.1
v -0.1 1.6 -0.2
v -0.1 1.6 -0.3
v -0.1 1.6 -0.4
v -0.1 1.7 0.2
v -0.1 1.7 0.1
v -0.1 1.7 -0.1
v -0.1 1.7 -0.2
v -0.1 1.7 -0.3
v -0.1 1.7 -0.4
v -0.1 2 0.2
v -0.1 2 -0.1
v -0.1 2 -0.2
v -0.1 2 -0.3
v -0.1 2.1 0.8
v -0.1 2.1 0.2
v -0.1 2.1 -0.1
v -0.1 2.1 -0.2
v -0.1 2.1 -0.3
v -0.1 2.2 0.8
v -0.1 2.2 -0.1
v -0.1 2.2 -0.2
v 5.96046e-008 1.7 -5.96046e-008
v 5.96046e-008 1.7 -0.1
v 5.96046e-008 1.7 -0.2
v 5.96046e-008 1.7 -0.3
v 5.96046e-008 1.8 0.1
v 5.96046e-008 1.8 -5.96046e-008
v 5.96046e-008 1.9 0.2
v 5.96046e-008 1.9 0.1
v 5.96046e-008 1.9 -5.96046e-008
v 5.96046e-008 2 0.8
v 5.96046e-008 2 0.2
v 5.96046e-008 2 0.1
v 5.96046e-008 2 -5.96046e-008
v 5.96046e-008 2 -0.1
v 5.96046e-008 2 -0.2
v 5.96046e-008 2 -0.3
v 5.96046e-008 2.1 0.8
v 5.96046e-008 2.1 0.2
v 5.96046e-008 2.1 -0.2
v 5.96046e-008 2.1 -0.3
v 5.96046e-008 2.2 0.8
v 5.96046e-008 2.2 -0.1
v 5.96046e-008 2.2 -0.2
v 5.96046e-008 2.2 -0.3
v 5.96046e-008 2.2 -0.4
v 5.96046e-008 2.3 0.8
v 5.96046e-008 2.3 -0.1
v 5.96046e-008 2.3 -0.3
v 5.96046e-008 2.3 -0.4
v 0.1 1.6 0.2
v 0.1 1.6 0.1
v 0.1 1.7 0.2
v 0.1 1.7 0.1
v 0.2 1.6 -5.96046e-008
v 0.2 1.6 -0.1
v 0.2 1.7 -5.96046e-008
v 0.2 1.7 -0.1
v 0.3 0 0.3
v 0.3 0 -0.4
v 0.3 0.6 0.3
v 0.3 0.6 -0.4
v -0.2 0 0.3
v -0.2 0 -0.4
v -0.2 0.6 0.3
v -0.2 0.6 -0.4
v -0.2 1.6 -0.1
v -0.2 1.6 -0.2
v -0.2 1.7 -0.1
v -0.2 1.7 -0.2
v 5.96046e-008 1.6 0.2
v 5.96046e-008 1.6 0.1
v 5.96046e-008 1.7 0.2
v 5.96046e-008 1.7 0.1
v 0.1 1.6 -5.96046e-008
v 0.1 1.6 -0.1
v 0.1 1.7 -5.96046e-008
v 0.1 1.8 0.1
v 0.1 1.8 -5.96046e-008
v 0.1 1.8 -0.2
v 0.1 1.8 -0.3
v 0.1 1.9 0.2
v 0.1 1.9 0.1
v 0.1 1.9 -5.96046e-008
v 0.1 2 0.8
v 0.1 2 0.2
v 0.1 2 0.1
v 0.1 2 -5.96046e-008
v 0.1 2 -0.1
v 0.1 2 -0.2
v 0.1 2 -0.3
v 0.1 2.1 0.8
v 0.1 2.1 0.2
v 0.1 2.1 -0.2
v 0.1 2.1 -0.3
v 0.1 2.2 0.8
v 0.1 2.2 -0.1
v 0.1 2.2 -0.2
v 0.1 2.2 -0.3
v 0.1 2.2 -0.4
v 0.1 2.3 0.8
v 0.1 2.3 -0.1
v 0.1 2.3 -0.3
v 0.1 2.3 -0.4
v 0.2 1.6 0.2
v 0.2 1.6 0.1
v 0.2 1.6 -0.3
v 0.2 1.6 -0.4
v 0.2 1.7 0.2
v 0.2 1.7 0.1
v 0.2 1.7 -0.1
v 0.2 1.7 -0.2
v 0.2 1.7 -0.3
v 0.2 1.7 -0.4
v 0.2 1.8 -0.2
v 0.2 1.8 -0.3
v 0.2 2 0.2
v 0.2 2 -0.1
v 0.2 2 -0.2
v 0.2 2 -0.3
v 0.2 2.1 0.8
v 0.2 2.1 0.2
v 0.2 2.1 -0.1
v 0.2 2.1 -0.2
v 0.2 2.1 -0.3
v 0.2 2.2 0.8
v 0.2 2.2 -0.1
v 0.2 2.2 -0.2
v 0.3 1.6 0.1
v 0.3 1.6 -0.1
v 0.3 1.6 -0.2
v 0.3 1.6 -0.3
v 0.3 1.7 0.1
v 0.3 1.7 -0.1
v 0.3 1.7 -0.2
v 0.3 1.7 -0.3
v 0.4 1.6 -0.1
v 0.4 1.6 -0.2
v 0.4 1.7 -0.1
v 0.4 1.7 -0.2
v 0.6 0.6 0.6
v 0.6 0.6 0.3
v 0.6 0.6 -0.4
v 0.6 0.6 -0.7
v 0.6 1.6 0.6
v 0.6 1.6 -0.7
v 0.9 0 0.3
v 0.9 0 -0.4
v 0.9 0.6 0.3
v 0.9 0.6 -0.4
v -0.1 2.1 0.8
v -0.1 2.2 0.8
v 5.96046e-008 2 0.8
v 5.96046e-008 2.1 0.8
v 5.96046e-008 2.2 0.8
v 5.96046e-008 2.3 0.8
v 0.1 2 0.8
v 0.1 2.1 0.8
v 0.1 2.2 0.8
v 0.1 2.3 0.8
v 0.2 2.1 0.8
v 0.2 2.2 0.8
v -0.5 0.6 0.6
v -0.5 1.6 0.6
v -0.3 1.1 0.6
v -0.3 1.2 0.6
v -0.2 1.1 0.6
v -0.2 1.2 0.6
v -0.1 0.8 0.6
v -0.1 0.9 0.6
v 5.96046e-008 0.8 0.6
v 5.96046e-008 0.9 0.6
v 0.1 0.8 0.6
v 0.1 0.9 0.6
v 0.2 0.8 0.6
v 0.2 0.9 0.6
v 0.2 1 0.6
v 0.3 0.9 0.6
v 0.3 1 0.6
v 0.3 1.3 0.6
v 0.3 1.4 0.6
v 0.4 1.3 0.6
v 0.4 1.4 0.6
v 0.6 0.6 0.6
v 0.6 1.6 0.6
v -0.8 0 0.3
v -0.8 0.6 0.3
v -0.5 0.6 0.3
v -0.2 0 0.3
v -0.2 0.6 0.3
v 0.3 0 0.3
v 0.3 0.6 0.3
v 0.6 0.6 0.3
v 0.9 0 0.3
v 0.9 0.6 0.3
v -0.1 1.6 0.2
v -0.1 1.7 0.2
v -0.1 2 0.2
v -0.1 2.1 0.2
v 5.96046e-008 1.6 0.2
v 5.96046e-008 1.7 0.2
v 5.96046e-008 1.9 0.2
v 5.96046e-008 2 0.2
v 5.96046e-008 2.1 0.2
v 0.1 1.6 0.2
v 0.1 1.7 0.2
v 0.1 1.9 0.2
v 0.1 2 0.2
v 0.1 2.1 0.2
v 0.2 1.6 0.2
v 0.2 1.7 0.2
v 0.2 2 0.2
v 0.2 2.1 0.2
v -0.2 1.6 0.1
v -0.2 1.7 0.1
v -0.1 1.6 0.1
v -0.1 1.7 0.1
v 5.96046e-008 1.6 0.1
v 5.96046e-008 1.7 0.1
v 5.96046e-008 1.8 0.1
v 5.96046e-008 1.9 0.1
v 0.1 1.6 0.1
v 0.1 1.7 0.1
v 0.1 1.8 0.1
v 0.1 1.9 0.1
v 0.2 1.6 0.1
v 0.2 1.7 0.1
v 0.3 1.6 0.1
v 0.3 1.7 0.1
v 5.96046e-008 1.7 -5.96046e-008
v 5.96046e-008 1.8 -5.96046e-008
v 5.96046e-008 1.9 -5.96046e-008
v 5.96046e-008 2 -5.96046e-008
v 0.1 1.7 -5.96046e-008
v 0.1 1.8 -5.96046e-008
v 0.1 1.9 -5.96046e-008
v 0.1 2 -5.96046e-008
v -0.3 1.6 -0.1
v -0.3 1.7 -0.1
v -0.2 1.6 -0.1
v -0.2 1.7 -0.1
v -0.1 1.7 -0.1
v -0.1 2 -0.1
v 5.96046e-008 1.7 -0.1
v 5.96046e-008 2 -0.1
v 0.1 1.6 -0.1
v 0.1 2 -0.1
v 0.2 1.6 -0.1
v 0.2 1.7 -0.1
v 0.2 2 -0.1
v 0.3 1.6 -0.1
v 0.3 1.7 -0.1
v 0.4 1.6 -0.1
v 0.4 1.7 -0.1
v -0.2 1.6 -0.2
v -0.2 1.7 -0.2
v -0.1 1.6 -0.2
v -0.1 1.7 -0.2
v 5.96046e-008 2.2 -0.3
v 5.96046e-008 2.3 -0.3
v 0.1 2.2 -0.3
v 0.1 2.3 -0.3
v 5.96046e-008 1.9 0.1
v 5.96046e-008 2 0.1
v 0.1 1.9 0.1
v 0.1 2 0.1
v 0.1 1.6 -5.96046e-008
v 0.1 1.7 -5.96046e-008
v 0.2 1.6 -5.96046e-008
v 0.2 1.7 -5.96046e-008
v -0.2 1.6 -0.1
v -0.2 1.7 -0.1
v -0.1 1.6 -0.1
v -0.1 1.7 -0.1
v 5.96046e-008 2.2 -0.1
v 5.96046e-008 2.3 -0.1
v 0.1 2.2 -0.1
v 0.1 2.3 -0.1
v -0.3 1.6 -0.2
v -0.3 1.7 -0.2
v -0.2 1.6 -0.2
v -0.2 1.7 -0.2
v -0.1 1.7 -0.2
v -0.1 2 -0.2
v -0.1 2.1 -0.2
v -0.1 2.2 -0.2
v 5.96046e-008 1.7 -0.2
v 5.96046e-008 2 -0.2
v 5.96046e-008 2.1 -0.2
v 5.96046e-008 2.2 -0.2
v 0.1 1.8 -0.2
v 0.1 2 -0.2
v 0.1 2.1 -0.2
v 0.1 2.2 -0.2
v 0.2 1.8 -0.2
v 0.2 2 -0.2
v 0.2 2.1 -0.2
v 0.2 2.2 -0.2
v 0.3 1.6 -0.2
v 0.3 1.7 -0.2
v 0.4 1.6 -0.2
v 0.4 1.7 -0.2
v -0.2 1.6 -0.3
v -0.2 1.7 -0.3
v -0.1 1.6 -0.3
v -0.1 1.7 -0.3
v -0.1 2 -0.3
v -0.1 2.1 -0.3
v 5.96046e-008 1.7 -0.3
v 5.96046e-008 2 -0.3
v 5.96046e-008 2.1 -0.3
v 5.96046e-008 2.2 -0.3
v 0.1 1.7 -0.3
v 0.1 1.8 -0.3
v 0.1 2 -0.3
v 0.1 2.1 -0.3
v 0.1 2.2 -0.3
v 0.2 1.6 -0.3
v 0.2 1.7 -0.3
v 0.2 1.8 -0.3
v 0.2 2 -0.3
v 0.2 2.1 -0.3
v 0.3 1.6 -0.3
v 0.3 1.7 -0.3
v -0.8 0 -0.4
v -0.8 0.6 -0.4
v -0.5 0.6 -0.4
v -0.2 0 -0.4
v -0.2 0.6 -0.4
v -0.1 1.6 -0.4
v -0.1 1.7 -0.4
v 5.96046e-008 2.2 -0.4
v 5.96046e-008 2.3 -0.4
v 0.1 2.2 -0.4
v 0.1 2.3 -0.4
v 0.2 1.6 -0.4
v 0.2 1.7 -0.4
v 0.3 0 -0.4
v 0.3 0.6 -0.4
v 0.6 0.6 -0.4
v 0.9 0 -0.4
v 0.9 0.6 -0.4
v -0.5 0.6 -0.7
v -0.5 1.6 -0.7
v 0.6 0.6 -0.7
v 0.6 1.6 -0.7
v -0.8 0 0.3
v -0.2 0 0.3
v 0.3 0 0.3
v 0.9 0 0.3
v -0.8 0 -0.4
v -0.2 0 -0.4
v 0.3 0 -0.4
v 0.9 0 -0.4
v -0.5 0.6 0.6
v 0.6 0.6 0.6
v -0.5 0.6 0.3
v -0.2 0.6 0.3
v 0.3 0.6 0.3
v 0.6 0.6 0.3
v -0.5 0.6 -0.4
v -0.2 0.6 -0.4
v 0.3 0.6 -0.4
v 0.6 0.6 -0.4
v -0.5 0.6 -0.7
v 0.6 0.6 -0.7
v 5.96046e-008 1.8 0.1
v 0.1 1.8 0.1
v 5.96046e-008 1.8 -5.96046e-008
v 0.1 1.8 -5.96046e-008
v 5.96046e-008 1.9 0.2
v 0.1 1.9 0.2
v 5.96046e-008 1.9 0.1
v 0.1 1.9 0.1
v 5.96046e-008 2 0.8
v 0.1 2 0.8
v -0.1 2 0.2
v 5.96046e-008 2 0.2
v 0.1 2 0.2
v 0.2 2 0.2
v 5.96046e-008 2 0.1
v 0.1 2 0.1
v 5.96046e-008 2 -5.96046e-008
v 0.1 2 -5.96046e-008
v -0.1 2 -0.1
v 5.96046e-008 2 -0.1
v 0.1 2 -0.1
v 0.2 2 -0.1
v -0.1 2 -0.2
v 5.96046e-008 2 -0.2
v 0.1 2 -0.2
v 0.2 2 -0.2
v -0.1 2 -0.3
v 5.96046e-008 2 -0.3
v 0.1 2 -0.3
v 0.2 2 -0.3
v -0.1 2.1 0.8
v 5.96046e-008 2.1 0.8
v 0.1 2.1 0.8
v 0.2 2.1 0.8
v -0.1 2.1 0.2
v 5.96046e-008 2.1 0.2
v 0.1 2.1 0.2
v 0.2 2.1 0.2
v 5.96046e-008 2.2 -0.3
v 0.1 2.2 -0.3
v 5.96046e-008 2.2 -0.4
v 0.1 2.2 -0.4
v -0.8 0.6 0.3
v -0.5 0.6 0.3
v 0.6 0.6 0.3
v 0.9 0.6 0.3
v -0.8 0.6 -0.4
v -0.5 0.6 -0.4
v 0.6 0.6 -0.4
v 0.9 0.6 -0.4
v -0.5 1.6 0.6
v 0.6 1.6 0.6
v -0.1 1.6 0.2
v 5.96046e-008 1.6 0.2
v 0.1 1.6 0.2
v 0.2 1.6 0.2
v -0.2 1.6 0.1
v -0.1 1.6 0.1
v 5.96046e-008 1.6 0.1
v 0.1 1.6 0.1
v 0.2 1.6 0.1
v 0.3 1.6 0.1
v 0.1 1.6 -5.96046e-008
v 0.2 1.6 -5.96046e-008
v -0.3 1.6 -0.1
v -0.2 1.6 -0.1
v -0.1 1.6 -0.1
v 0.1 1.6 -0.1
v 0.2 1.6 -0.1
v 0.3 1.6 -0.1
v 0.4 1.6 -0.1
v -0.3 1.6 -0.2
v -0.2 1.6 -0.2
v -0.1 1.6 -0.2
v 0.3 1.6 -0.2
v 0.4 1.6 -0.2
v -0.2 1.6 -0.3
v -0.1 1.6 -0.3
v 0.2 1.6 -0.3
v 0.3 1.6 -0.3
v -0.1 1.6 -0.4
v 0.2 1.6 -0.4
v -0.5 1.6 -0.7
v 0.6 1.6 -0.7
v -0.1 1.7 0.2
v 5.96046e-008 1.7 0.2
v 0.1 1.7 0.2
v 0.2 1.7 0.2
v -0.2 1.7 0.1
v -0.1 1.7 0.1
v 5.96046e-008 1.7 0.1
v 0.1 1.7 0.1
v 0.2 1.7 0.1
v 0.3 1.7 0.1
v 5.96046e-008 1.7 -5.96046e-008
v 0.1 1.7 -5.96046e-008
v 0.2 1.7 -5.96046e-008
v -0.3 1.7 -0.1
v -0.2 1.7 -0.1
v -0.1 1.7 -0.1
v 5.96046e-008 1.7 -0.1
v 0.2 1.7 -0.1
v 0.3 1.7 -0.1
v 0.4 1.7 -0.1
v -0.3 1.7 -0.2
v -0.2 1.7 -0.2
v -0.1 1.7 -0.2
v 5.96046e-008 1.7 -0.2
v 0.2 1.7 -0.2
v 0.3 1.7 -0.2
v 0.4 1.7 -0.2
v -0.2 1.7 -0.3
v -0.1 1.7 -0.3
v 5.96046e-008 1.7 -0.3
v 0.1 1.7 -0.3
v 0.2 1.7 -0.3
v 0.3 1.7 -0.3
v -0.1 1.7 -0.4
v 0.2 1.7 -0.4
v 0.1 1.8 -0.2
v 0.2 1.8 -0.2
v 0.1 1.8 -0.3
v 0.2 1.8 -0.3
v 5.96046e-008 1.9 0.1
v 0.1 1.9 0.1
v 5.96046e-008 1.9 -5.96046e-008
v 0.1 1.9 -5.96046e-008
v -0.1 2.1 -0.2
v 5.96046e-008 2.1 -0.2
v 0.1 2.1 -0.2
v 0.2 2.1 -0.2
v -0.1 2.1 -0.3
v 5.96046e-008 2.1 -0.3
v 0.1 2.1 -0.3
v 0.2 2.1 -0.3
v -0.1 2.2 0.8
v 5.96046e-008 2.2 0.8
v 0.1 2.2 0.8
v 0.2 2.2 0.8
v -0.1 2.2 -0.1
v 5.96046e-008 2.2 -0.1
v 0.1 2.2 -0.1
v 0.2 2.2 -0.1
v -0.1 2.2 -0.2
v 5.96046e-008 2.2 -0.2
v 0.1 2.2 -0.2
v 0.2 2.2 -0.2
v 5.96046e-008 2.2 -0.3
v 0.1 2.2 -0.3
v 5.96046e-008 2.3 0.8
v 0.1 2.3 0.8
v 5.96046e-008 2.3 -0.1
v 0.1 2.3 -0.1
v 5.96046e-008 2.3 -0.3
v 0.1 2.3 -0.3
v 5.96046e-008 2.3 -0.4
v 0.1 2.3 -0.4

# faces
f 3/1/1 2/1/1 1/1/1
f 4/1/1 2/1/1 3/1/1
f 9/1/1 6/1/1 5/1/1
f 9/1/1 8/1/1 7/1/1
f 9/1/1 7/1/1 6/1/1
f 10/1/1 8/1/1 9/1/1
f 13/1/1 12/1/1 11/1/1
f 14/1/1 12/1/1 13/1/1
f 19/1/1 16/1/1 15/1/1
f 20/1/1 16/1/1 19/1/1
f 21/1/1 18/1/1 17/1/1
f 22/1/1 18/1/1 21/1/1
f 29/1/1 24/1/1 23/1/1
f 30/1/1 24/1/1 29/1/1
f 31/2/1 26/2/1 25/2/1
f 32/2/1 26/2/1 31/2/1
f 33/1/1 28/1/1 27/1/1
f 34/1/1 28/1/1 33/1/1
f 36/2/1 32/2/1 31/2/1
f 37/2/1 32/2/1 36/2/1
f 40/2/1 36/2/1 35/2/1
f 40/2/1 37/2/1 36/2/1
f 41/2/1 37/2/1 40/2/1
f 42/3/1 38/3/1 37/3/1
f 42/2/1 37/2/1 41/2/1
f 43/3/1 38/3/1 42/3/1
f 44/2/1 41/2/1 40/2/1
f 44/2/1 40/2/1 39/2/1
f 45/3/1 42/3/1 41/3/1
f 45/2/1 41/2/1 44/2/1
f 46/3/1 42/3/1 45/3/1
f 52/2/1 48/2/1 47/2/1
f 54/2/1 52/2/1 51/2/1
f 55/2/1 48/2/1 52/2/1
f 55/2/1 52/2/1 54/2/1
f 57/2/1 54/2/1 53/2/1
f 58/2/1 54/2/1 57/2/1
f 59/2/1 48/2/1 55/2/1
f 60/2/1 48/2/1 59/2/1
f 61/2/1 50/2/1 49/2/1
f 62/2/1 50/2/1 61/2/1
f 63/2/1 57/2/1 56/2/1
f 64/2/1 57/2/1 63/2/1
f 69/3/1 66/3/1 65/3/1
f 70/3/1 66/3/1 69/3/1
f 72/3/1 68/3/1 67/3/1
f 73/3/1 68/3/1 72/3/1
f 74/3/1 71/3/1 70/3/1
f 75/3/1 71/3/1 74/3/1
f 78/1/1 77/1/1 76/1/1
f 79/1/1 77/1/1 78/1/1
f 82/1/1 81/1/1 80/1/1
f 83/1/1 81/1/1 82/1/1
f 86/1/1 85/1/1 84/1/1
f 87/1/1 85/1/1 86/1/1
f 88/1/2 89/1/2 90/1/2
f 90/1/2 89/1/2 91/1/2
f 92/1/2 93/1/2 94/1/2
f 94/1/2 93/1/2 95/1/2
f 96/1/2 97/1/2 98/1/2
f 98/1/2 97/1/2 99/1/2
f 100/2/2 101/2/2 102/2/2
f 102/2/2 101/2/2 104/2/2
f 103/2/2 104/2/2 108/2/2
f 104/2/2 101/2/2 109/2/2
f 108/2/2 104/2/2 109/2/2
f 107/2/2 108/2/2 111/2/2
f 111/2/2 108/2/2 112/2/2
f 109/2/2 101/2/2 113/2/2
f 113/2/2 101/2/2 114/2/2
f 105/2/2 106/2/2 115/2/2
f 115/2/2 106/2/2 116/2/2
f 110/2/2 111/2/2 117/2/2
f 117/2/2 111/2/2 118/2/2
f 119/3/2 120/3/2 123/3/2
f 123/3/2 120/3/2 124/3/2
f 121/3/2 122/3/2 126/3/2
f 126/3/2 122/3/2 127/3/2
f 124/3/2 125/3/2 128/3/2
f 128/3/2 125/3/2 129/3/2
f 130/1/2 131/1/2 134/1/2
f 134/1/2 131/1/2 135/1/2
f 132/1/2 133/1/2 138/1/2
f 138/1/2 133/1/2 139/1/2
f 136/2/2 137/2/2 140/2/2
f 137/1/2 138/1/2 140/1/2
f 140/1/2 138/1/2 141/1/2
f 136/2/2 140/2/2 143/2/2
f 143/2/2 140/2/2 144/2/2
f 142/2/2 143/2/2 147/2/2
f 143/2/2 144/2/2 147/2/2
f 147/2/2 144/2/2 148/2/2
f 144/3/2 145/3/2 149/3/2
f 148/2/2 144/2/2 149/2/2
f 149/3/2 145/3/2 150/3/2
f 147/2/2 148/2/2 151/2/2
f 146/2/2 147/2/2 151/2/2
f 148/3/2 149/3/2 152/3/2
f 151/2/2 148/2/2 152/2/2
f 152/3/2 149/3/2 153/3/2
f 154/1/2 155/1/2 158/1/2
f 158/1/2 155/1/2 159/1/2
f 156/1/2 157/1/2 160/1/2
f 160/1/2 157/1/2 161/1/2
f 162/1/2 163/1/2 164/1/2
f 164/1/2 163/1/2 165/1/2
f 166/1/2 167/1/2 170/1/2
f 168/1/2 169/1/2 170/1/2
f 167/1/2 168/1/2 170/1/2
f 170/1/2 169/1/2 171/1/2
f 172/1/2 173/1/2 174/1/2
f 174/1/2 173/1/2 175/1/2
f 179/2/3 177/2/3 176/2/3
f 180/2/3 177/2/3 179/2/3
f 182/2/3 179/2/3 178/2/3
f 183/4/3 180/4/3 179/4/3
f 183/2/3 179/2/3 182/2/3
f 184/3/3 181/3/3 180/3/3
f 184/4/3 180/4/3 183/4/3
f 185/3/3 181/3/3 184/3/3
f 186/2/3 184/2/3 183/2/3
f 187/2/3 184/2/3 186/2/3
f 190/1/3 189/1/3 188/1/3
f 191/1/3 189/1/3 190/1/3
f 192/1/3 190/1/3 188/1/3
f 192/4/3 191/4/3 190/4/3
f 193/1/3 189/1/3 191/1/3
f 193/4/3 191/4/3 192/4/3
f 194/1/3 192/1/3 188/1/3
f 194/1/3 193/1/3 192/1/3
f 195/1/3 193/1/3 194/1/3
f 196/1/3 194/1/3 188/1/3
f 196/4/3 195/4/3 194/4/3
f 197/1/3 193/1/3 195/1/3
f 197/4/3 195/4/3 196/4/3
f 198/1/3 196/1/3 188/1/3
f 198/1/3 197/1/3 196/1/3
f 199/1/3 193/1/3 197/1/3
f 199/1/3 197/1/3 198/1/3
f 200/1/3 198/1/3 188/1/3
f 200/4/3 199/4/3 198/4/3
f 201/1/3 193/1/3 199/1/3
f 201/4/3 199/4/3 200/4/3
f 202/1/3 193/1/3 201/1/3
f 203/1/3 201/1/3 200/1/3
f 203/4/3 202/4/3 201/4/3
f 204/1/3 193/1/3 202/1/3
f 204/4/3 202/4/3 203/4/3
f 205/1/3 189/1/3 193/1/3
f 205/1/3 193/1/3 204/1/3
f 206/1/3 189/1/3 205/1/3
f 207/1/3 204/1/3 203/1/3
f 207/1/3 205/1/3 204/1/3
f 207/4/3 206/4/3 205/4/3
f 208/1/3 189/1/3 206/1/3
f 208/4/3 206/4/3 207/4/3
f 209/1/3 207/1/3 203/1/3
f 209/1/3 200/1/3 188/1/3
f 209/1/3 208/1/3 207/1/3
f 209/1/3 203/1/3 200/1/3
f 210/1/3 189/1/3 208/1/3
f 210/1/3 208/1/3 209/1/3
f 213/1/3 212/1/3 211/1/3
f 214/1/3 213/1/3 211/1/3
f 215/1/3 213/1/3 214/1/3
f 218/1/3 217/1/3 216/1/3
f 219/1/3 218/1/3 216/1/3
f 220/1/3 218/1/3 219/1/3
f 225/1/3 222/1/3 221/1/3
f 226/1/3 222/1/3 225/1/3
f 228/2/3 224/2/3 223/2/3
f 229/2/3 224/2/3 228/2/3
f 232/2/3 228/2/3 227/2/3
f 233/2/3 228/2/3 232/2/3
f 235/1/3 231/1/3 230/1/3
f 236/1/3 231/1/3 235/1/3
f 237/2/3 234/2/3 233/2/3
f 238/2/3 234/2/3 237/2/3
f 241/1/3 240/1/3 239/1/3
f 242/1/3 240/1/3 241/1/3
f 247/1/3 244/1/3 243/1/3
f 248/1/3 244/1/3 247/1/3
f 249/2/3 246/2/3 245/2/3
f 250/2/3 246/2/3 249/2/3
f 253/1/3 252/1/3 251/1/3
f 254/1/3 252/1/3 253/1/3
f 259/2/3 256/2/3 255/2/3
f 260/2/3 256/2/3 259/2/3
f 261/2/3 258/2/3 257/2/3
f 262/2/3 258/2/3 261/2/3
f 265/1/3 264/1/3 263/1/3
f 266/1/3 264/1/3 265/1/3
f 269/2/3 268/2/3 267/2/3
f 270/2/3 268/2/3 269/2/3
f 273/2/3 272/2/3 271/2/3
f 274/2/3 272/2/3 273/2/3
f 275/2/3 272/2/3 274/2/3
f 278/1/3 277/1/3 276/1/3
f 279/1/3 277/1/3 278/1/3
f 282/1/3 281/1/3 280/1/3
f 283/1/3 281/1/3 282/1/3
f 286/3/3 285/3/3 284/3/3
f 287/3/3 285/3/3 286/3/3
f 288/2/4 289/2/4 290/2/4
f 290/2/4 289/2/4 291/2/4
f 292/1/4 293/1/4 294/1/4
f 294/1/4 293/1/4 295/1/4
f 296/1/4 297/1/4 298/1/4
f 298/1/4 297/1/4 299/1/4
f 300/3/4 301/3/4 302/3/4
f 302/3/4 301/3/4 303/3/4
f 304/1/4 305/1/4 306/1/4
f 306/1/4 305/1/4 307/1/4
f 308/2/4 309/2/4 312/2/4
f 312/2/4 309/2/4 313/2/4
f 310/3/4 311/3/4 314/3/4
f 314/3/4 311/3/4 315/3/4
f 316/2/4 317/2/4 320/2/4
f 320/2/4 317/2/4 321/2/4
f 318/3/4 319/3/4 322/3/4
f 322/3/4 319/3/4 323/3/4
f 324/1/4 325/1/4 326/1/4
f 326/1/4 325/1/4 327/1/4
f 328/1/4 329/1/4 330/1/4
f 330/1/4 329/1/4 331/1/4
f 332/3/4 333/3/4 335/3/4
f 335/3/4 333/3/4 336/3/4
f 334/2/4 335/2/4 338/2/4
f 335/2/4 336/2/4 338/2/4
f 338/2/4 336/2/4 339/2/4
f 339/2/4 336/2/4 340/2/4
f 336/3/4 337/3/4 341/3/4
f 340/2/4 336/2/4 341/2/4
f 341/3/4 337/3/4 342/3/4
f 338/1/4 339/1/4 344/1/4
f 344/1/4 339/1/4 345/1/4
f 340/3/4 341/3/4 346/3/4
f 346/3/4 341/3/4 347/3/4
f 343/1/4 344/1/4 348/1/4
f 348/1/4 344/1/4 349/1/4
f 350/1/4 351/1/4 352/1/4
f 350/1/4 352/1/4 353/1/4
f 353/1/4 352/1/4 354/1/4
f 357/3/4 358/3/4 359/3/4
f 359/3/4 358/3/4 360/3/4
f 355/1/4 356/1/4 361/1/4
f 361/1/4 356/1/4 362/1/4
f 363/1/4 364/1/4 365/1/4
f 363/1/4 365/1/4 366/1/4
f 366/1/4 365/1/4 367/1/4
f 368/1/4 369/1/4 370/1/4
f 370/1/4 369/1/4 371/1/4
f 376/1/5 373/1/5 372/1/5
f 377/1/5 373/1/5 376/1/5
f 378/1/5 375/1/5 374/1/5
f 379/1/5 375/1/5 378/1/5
f 382/1/5 381/1/5 380/1/5
f 383/1/5 381/1/5 382/1/5
f 384/1/5 381/1/5 383/1/5
f 385/1/5 381/1/5 384/1/5
f 387/1/5 384/1/5 383/1/5
f 388/1/5 384/1/5 387/1/5
f 390/1/5 387/1/5 386/1/5
f 390/1/5 389/1/5 388/1/5
f 390/1/5 388/1/5 387/1/5
f 391/1/5 389/1/5 390/1/5
f 394/2/5 393/2/5 392/2/5
f 395/2/5 393/2/5 394/2/5
f 398/2/5 397/2/5 396/2/5
f 399/2/5 397/2/5 398/2/5
f 403/2/5 401/2/5 400/2/5
f 404/2/5 401/2/5 403/2/5
f 406/2/5 403/2/5 402/2/5
f 407/2/5 405/2/5 404/2/5
f 408/2/5 406/2/5 402/2/5
f 408/2/5 407/2/5 406/2/5
f 409/2/5 405/2/5 407/2/5
f 409/2/5 407/2/5 408/2/5
f 410/2/5 408/2/5 402/2/5
f 411/2/5 408/2/5 410/2/5
f 412/2/5 405/2/5 409/2/5
f 413/2/5 405/2/5 412/2/5
f 418/3/5 415/3/5 414/3/5
f 419/3/5 415/3/5 418/3/5
f 420/3/5 417/3/5 416/3/5
f 421/3/5 417/3/5 420/3/5
f 426/2/5 423/2/5 422/2/5
f 427/2/5 423/2/5 426/2/5
f 428/2/5 425/2/5 424/2/5
f 429/2/5 425/2/5 428/2/5
f 432/3/5 431/3/5 430/3/5
f 433/3/5 431/3/5 432/3/5
f 434/1/6 435/1/6 438/1/6
f 438/1/6 435/1/6 439/1/6
f 436/1/6 437/1/6 440/1/6
f 440/1/6 437/1/6 441/1/6
f 442/1/6 443/1/6 444/1/6
f 444/1/6 443/1/6 445/1/6
f 445/1/6 443/1/6 446/1/6
f 446/1/6 443/1/6 447/1/6
f 442/1/6 444/1/6 448/1/6
f 448/1/6 444/1/6 449/1/6
f 445/1/6 446/1/6 450/1/6
f 450/1/6 446/1/6 451/1/6
f 447/1/6 443/1/6 452/1/6
f 452/1/6 443/1/6 453/1/6
f 442/1/6 448/1/6 456/1/6
f 456/1/6 448/1/6 457/1/6
f 454/1/6 455/1/6 459/1/6
f 459/1/6 455/1/6 460/1/6
f 453/1/6 443/1/6 461/1/6
f 461/1/6 443/1/6 462/1/6
f 442/1/6 456/1/6 463/1/6
f 457/1/6 458/1/6 464/1/6
f 464/1/6 458/1/6 465/1/6
f 462/1/6 443/1/6 467/1/6
f 463/1/6 464/1/6 468/1/6
f 466/1/6 467/1/6 471/1/6
f 468/1/6 469/1/6 472/1/6
f 470/1/6 471/1/6 473/1/6
f 468/1/6 472/1/6 474/1/6
f 472/1/6 473/1/6 474/1/6
f 442/1/6 463/1/6 474/1/6
f 463/1/6 468/1/6 474/1/6
f 473/1/6 471/1/6 475/1/6
f 474/1/6 473/1/6 475/1/6
f 467/1/6 443/1/6 475/1/6
f 471/1/6 467/1/6 475/1/6
f 476/1/6 477/1/6 481/1/6
f 481/1/6 477/1/6 482/1/6
f 478/1/6 479/1/6 483/1/6
f 483/1/6 479/1/6 484/1/6
f 481/1/6 482/1/6 486/1/6
f 484/1/6 485/1/6 486/1/6
f 483/1/6 484/1/6 486/1/6
f 482/1/6 483/1/6 486/1/6
f 480/1/6 481/1/6 486/1/6
f 486/1/6 485/1/6 487/1/6
f 487/1/6 485/1/6 488/1/6
f 480/1/6 486/1/6 490/1/6
f 490/1/6 486/1/6 491/1/6
f 491/1/6 486/1/6 492/1/6
f 488/1/6 485/1/6 493/1/6
f 493/1/6 485/1/6 494/1/6
f 489/1/6 490/1/6 496/1/6
f 496/1/6 490/1/6 497/1/6
f 494/1/6 495/1/6 500/1/6
f 493/1/6 494/1/6 500/1/6
f 500/1/6 495/1/6 501/1/6
f 501/1/6 495/1/6 502/1/6
f 498/1/6 499/1/6 503/1/6
f 497/1/6 498/1/6 503/1/6
f 503/1/6 499/1/6 504/1/6
f 504/1/6 499/1/6 505/1/6
f 500/1/6 501/1/6 507/1/6
f 507/1/6 501/1/6 508/1/6
f 505/1/6 506/1/6 509/1/6
f 506/1/6 507/1/6 509/1/6
f 504/1/6 505/1/6 509/1/6
f 509/1/6 507/1/6 510/1/6
f 511/1/6 512/1/6 513/1/6
f 513/1/6 512/1/6 514/1/6
f 515/2/6 516/2/6 517/2/6
f 517/2/6 516/2/6 518/2/6
f 519/3/6 520/3/6 523/3/6
f 523/3/6 520/3/6 524/3/6
f 521/3/6 522/3/6 525/3/6
f 525/3/6 522/3/6 526/3/6
f 527/2/6 528/2/6 531/2/6
f 531/2/6 528/2/6 532/2/6
f 529/2/6 530/2/6 533/2/6
f 533/2/6 530/2/6 534/2/6
f 531/3/6 532/3/6 535/3/6
f 532/3/6 533/3/6 535/3/6
f 533/3/6 534/3/6 535/3/6
f 535/3/6 534/3/6 536/3/6
f 536/3/6 534/3/6 537/3/6
f 537/3/6 534/3/6 538/3/6
f 536/3/6 537/3/6 539/3/6
f 539/3/6 537/3/6 540/3/6
f 541/3/6 542/3/6 543/3/6
f 543/3/6 542/3/6 544/3/6
f 545/3/6 546/3/6 547/3/6
f 547/3/6 546/3/6 548/3/6
